<svg width="0" height="0" class="hidden">
    <symbol  xmlns="http://www.w3.org/2000/svg" viewBox="0 0 19 19" id="search">
        <path fill-rule="evenodd" clip-rule="evenodd" d="M17.9005 16.4865L14.3205 12.9065L14.3195 12.9055C16.9095 9.569 16.4594 4.79387 13.2916 2.00007C10.1238 -0.793727 5.32983 -0.643497 2.34317 2.34317C-0.643497 5.32983 -0.793727 10.1238 2.00007 13.2916C4.79387 16.4594 9.569 16.9095 12.9055 14.3195L16.4855 17.8995C16.7364 18.1596 17.1081 18.2642 17.4578 18.1729C17.8075 18.0816 18.0808 17.8088 18.1725 17.4592C18.2643 17.1097 18.1603 16.7378 17.9005 16.4865ZM13.1967 11.0005C12.1249 12.8569 10.1441 14.0005 8.00052 14.0005C4.68681 14.0005 2.00052 11.3142 2.00052 8.00052C2.00052 4.68681 4.68681 2.00052 8.00052 2.00052C10.1441 2.00052 12.1249 3.14411 13.1967 5.00052C14.2685 6.85693 14.2685 9.14411 13.1967 11.0005Z"></path>
    </symbol>
    <symbol xmlns="http://www.w3.org/2000/svg" viewBox="0 0 27 20" id="video">
        <path fill-rule="evenodd" clip-rule="evenodd" d="M22.2082 2.86766L18.4091 5.68182V2.50266C18.4091 1.11814 17.3104 0 15.955 0H2.4541C1.09644 0 0 1.12048 0 2.50266V17.4973C0 18.8819 1.09874 20 2.4541 20H15.955C17.3126 20 18.4091 18.8795 18.4091 17.4973V14.3182L22.2082 17.1323C22.48 17.3336 22.9801 17.5 23.32 17.5H25.7691C26.456 17.5 27 16.939 27 16.2469V3.75309C27 3.06064 26.4489 2.5 25.7691 2.5H23.32C22.9732 2.5 22.4823 2.66461 22.2082 2.86766ZM2.45455 17.5V2.5H15.9545V17.5H2.45455ZM4.90909 13.75C4.90909 13.0596 5.45956 12.5 6.13996 12.5H12.2691C12.9489 12.5 13.5 13.0548 13.5 13.75C13.5 14.4404 12.9495 15 12.2691 15H6.13996C5.46017 15 4.90909 14.4452 4.90909 13.75ZM23.5108 14.9998L18.424 11.238L18.4243 8.76179L23.5073 4.9966L24.5455 4.99818V14.9988L23.5108 14.9998Z"></path>
    </symbol>
    <symbol xmlns="http://www.w3.org/2000/svg" viewBox="0 0 21 21" id="apps">
        <path fill-rule="evenodd" clip-rule="evenodd" d="M4.99149 2.70629C5.10543 1.33028 4.08232 0.122449 2.70632 0.00851152C1.33031 -0.105426 0.12248 0.91768 0.00854204 2.29368C-0.105395 3.66969 0.91771 4.87752 2.29371 4.99146C3.66972 5.1054 4.87755 4.08229 4.99149 2.70629ZM2.50004 13C1.11933 13 3.86417e-05 11.8807 3.86417e-05 10.5C3.86417e-05 9.11928 1.11933 7.99999 2.50004 7.99999C3.88075 7.99999 5.00004 9.11928 5.00004 10.5C5.00004 11.8807 3.88075 13 2.50004 13ZM10.4999 20.9999C9.11923 20.9999 7.99994 19.8807 7.99994 18.4999C7.99994 17.1192 9.11923 15.9999 10.4999 15.9999C11.8807 15.9999 12.9999 17.1192 12.9999 18.4999C12.9999 19.8807 11.8807 20.9999 10.4999 20.9999ZM2.50004 21C1.11933 21 3.86417e-05 19.8807 3.86417e-05 18.5C3.86417e-05 17.1193 1.11933 16 2.50004 16C3.88075 16 5.00004 17.1193 5.00004 18.5C5.00004 19.8807 3.88075 21 2.50004 21ZM16 18.5C16 19.8807 17.1193 21 18.5 21C19.8808 21 21 19.8807 21 18.5C21 17.1193 19.8808 16 18.5 16C17.1193 16 16 17.1193 16 18.5ZM10.4999 12.9999C9.11923 12.9999 7.99994 11.8806 7.99994 10.4999C7.99994 9.11923 9.11923 7.99994 10.4999 7.99994C11.8807 7.99994 12.9999 9.11923 12.9999 10.4999C12.9999 11.8806 11.8807 12.9999 10.4999 12.9999ZM7.99994 2.49994C7.99994 3.88065 9.11923 4.99994 10.4999 4.99994C11.8807 4.99994 12.9999 3.88065 12.9999 2.49994C12.9999 1.11923 11.8807 -6.17088e-05 10.4999 -6.17088e-05C9.11923 -6.17088e-05 7.99994 1.11923 7.99994 2.49994ZM18.5 13C17.1193 13 16 11.8807 16 10.5C16 9.11928 17.1193 7.99999 18.5 7.99999C19.8808 7.99999 21 9.11928 21 10.5C21 11.8807 19.8808 13 18.5 13ZM16 2.49999C16 3.8807 17.1193 4.99999 18.5 4.99999C19.8808 4.99999 21 3.8807 21 2.49999C21 1.11928 19.8808 -7.41856e-06 18.5 -7.41856e-06C17.1193 -7.41856e-06 16 1.11928 16 2.49999Z"></path>
    </symbol>
    <symbol  xmlns="http://www.w3.org/2000/svg" viewBox="0 0 22 26" id="notification">
        <path fill-rule="evenodd" clip-rule="evenodd" d="M3.66927 22.4545C1.64382 22.4545 0 20.8655 0 18.9091C0 17.6106 0.727122 16.4532 1.83849 15.835C1.83849 15.4764 1.83333 11.2256 1.83333 11.2256C1.83333 7.14185 4.66852 3.70365 8.55556 2.6765V2.36364C8.55556 1.05824 9.64997 0 11 0C12.35 0 13.4444 1.05824 13.4444 2.36364V2.6765C17.3323 3.70344 20.1667 7.14194 20.1667 11.2318V15.8454C21.2793 16.4664 22 17.619 22 18.9091C22 20.8681 20.3586 22.4545 18.3307 22.4545H14.6667C14.6646 24.413 13.0197 26 11 26C8.97496 26 7.33333 24.4143 7.33333 22.4571L3.66927 22.4545ZM9.77778 22.4545C9.77778 23.1083 10.3244 23.6364 11 23.6364C11.6709 23.6364 12.2201 23.1064 12.2222 22.4545H9.77778ZM17.7222 11.2318V16.9427C17.7222 17.2702 17.9922 17.6032 18.3181 17.6847L18.6385 17.7648C19.1733 17.8984 19.5556 18.3689 19.5556 18.9091C19.5556 19.5624 19.0088 20.0909 18.3307 20.0909H3.66927C2.99369 20.0909 2.44444 19.56 2.44444 18.9091C2.44444 18.3666 2.82517 17.8979 3.36026 17.7647L3.69151 17.6823C4.0153 17.6017 4.27778 17.2732 4.27778 16.9426V11.2256C4.27778 7.63639 7.28675 4.72727 11 4.72727C14.7148 4.72727 17.7222 7.63541 17.7222 11.2318Z"></path>
    </symbol>
</svg>